<svg xmlns="http://www.w3.org/2000/svg" xmlns:xlink="http://www.w3.org/1999/xlink" width="29" height="29" viewBox="0 0 29 29"><defs><style>.a,.b,.e,.f,.g{fill:#fff;}.a{stroke:#707070;}.b{stroke:#206ffc;stroke-width:0.5px;stroke-dasharray:2 2;}.c{fill:#206ffc;}.d{clip-path:url(#a);}.e{opacity:0.3;}.g{opacity:0.1;}.h{stroke:none;}.i{fill:none;}</style><clipPath id="a"><rect class="a" width="14" height="14" transform="translate(325 503)"/></clipPath></defs><g transform="translate(-657.124 -600.124)"><g class="b" transform="translate(657.125 600.124)"><circle class="h" cx="14.5" cy="14.5" r="14.5"/><circle class="i" cx="14.5" cy="14.5" r="14.25"/></g><circle class="c" cx="10.5" cy="10.5" r="10.5" transform="translate(661.125 604.124)"/><g class="d" transform="translate(339.124 104.124)"><g transform="translate(325 503.329)"><path class="e" d="M8.682,12.53H2.242a.658.658,0,0,1,0-1.316H8.668a.657.657,0,0,1,.658.658.645.645,0,0,1-.644.658Zm0,0" transform="translate(-0.352 -2.828)"/><path class="e" d="M10.7,15.894H1.486a.658.658,0,1,0,0,1.316h9.226V15.894Z" transform="translate(-0.184 -3.868)"/><path class="e" d="M13.824,15.894h.56v1.3h-.56Z" transform="translate(-3.072 -3.868)"/><path class="e" d="M15.408,15.894h.35v1.3h-.35Z" transform="translate(-3.424 -3.868)"/><path class="e" d="M16.918,15.894h-.826v1.3h.826a.651.651,0,1,0,0-1.3Z" transform="translate(-3.576 -3.868)"/><path class="e" d="M16.8,7.918a.35.35,0,1,1,.35-.35A.347.347,0,0,1,16.8,7.918Zm0-.546a.2.2,0,0,0-.2.2.2.2,0,1,0,.392,0A.2.2,0,0,0,16.8,7.372Zm0,0" transform="translate(-3.656 -1.94)"/><path class="e" d="M4.763,2.958a.452.452,0,0,1-.294-.112A.487.487,0,0,1,4.3,2.538.447.447,0,0,1,4.413,2.2a.487.487,0,0,1,.308-.168.456.456,0,0,1,.07.91C4.791,2.958,4.763,2.958,4.763,2.958Zm0-.77H4.735a.346.346,0,0,0-.224.112.287.287,0,0,0-.07.238.316.316,0,0,0,.112.224.3.3,0,0,0,.238.07.323.323,0,0,0-.028-.644Zm0,0" transform="translate(-0.955 -0.788)"/><path class="e" d="M.756,10.382A.09.09,0,0,1,.672,10.3v-.49l-.35.35a.085.085,0,0,1-.112,0,.085.085,0,0,1,0-.112L.56,9.7H.084A.078.078,0,0,1,0,9.626a.09.09,0,0,1,.084-.084H.56l-.35-.35a.085.085,0,0,1,0-.112.085.085,0,0,1,.112,0l.35.35V8.94a.09.09,0,0,1,.084-.084A.09.09,0,0,1,.84,8.94v.49l.35-.35a.079.079,0,1,1,.112.112l-.35.35h.49a.084.084,0,1,1,0,.168H.952l.35.35a.079.079,0,1,1-.112.112L.84,9.808v.49a.09.09,0,0,1-.084.084Zm0,0" transform="translate(0 -2.304)"/><path class="f" d="M17.608,12.588H16.95a.084.084,0,0,1,0-.168h.658a.09.09,0,0,1,.084.084C17.678,12.546,17.65,12.588,17.608,12.588Zm0,0" transform="translate(-3.748 -3.096)"/><path class="f" d="M15.244,10.694a.09.09,0,0,1-.084-.084V9.952a.084.084,0,1,1,.168,0v.658A.09.09,0,0,1,15.244,10.694ZM8.482,2.616H7.824a.084.084,0,0,1,0-.168h.658a.09.09,0,0,1,.084.084C8.552,2.574,8.524,2.616,8.482,2.616Z" transform="translate(-1.72 -0.88)"/><path class="f" d="M8.238,2.842a.09.09,0,0,1-.084-.084V2.1a.084.084,0,0,1,.168,0v.658Q8.3,2.842,8.238,2.842Zm0,0" transform="translate(-1.812 -0.784)"/><path class="e" d="M13.53,2.466a.659.659,0,0,1-.588.7.65.65,0,0,1,.588.7.659.659,0,0,1,.588-.7A.65.65,0,0,1,13.53,2.466Zm0,0" transform="translate(-2.876 -0.884)"/><path class="e" d="M10.682,1.132a.356.356,0,0,1-.35-.35.35.35,0,1,1,.7,0A.347.347,0,0,1,10.682,1.132Zm0-.56a.2.2,0,0,0-.2.2.2.2,0,0,0,.392,0A.2.2,0,0,0,10.682.572Zm0,0" transform="translate(-2.296 -0.432)"/><path class="e" d="M1.718,3.834A1.078,1.078,0,0,0,2.7,5a1.078,1.078,0,0,0-.98,1.162A1.078,1.078,0,0,0,.738,5,1.078,1.078,0,0,0,1.718,3.834Zm0,0" transform="translate(-0.164 -1.188)"/><path class="e" d="M1.72,13.574a.28.28,0,1,1,.28-.28A.281.281,0,0,1,1.72,13.574Zm0-.434a.154.154,0,1,0,.154.154A.155.155,0,0,0,1.72,13.14Zm0,0" transform="translate(-0.32 -3.228)"/><path class="f" d="M11.222,6.132l.392.224a.233.233,0,0,1,.238.224v7.448a.233.233,0,0,1-.238.224H5.734a1.162,1.162,0,0,1-.784-.294,1.106,1.106,0,0,1-.364-.714V13.2c0-.028-.014-.042-.014-.07V5.922" transform="translate(-1.016 -1.652)"/><path class="e" d="M5.6,4.8H5.54a.592.592,0,0,0-.644.546.61.61,0,0,0,.644.546h5.74V4.788H5.61L5.6,4.8Zm0,0" transform="translate(-1.088 -1.4)"/><path class="g" d="M11.312,6.132l.378.224a.221.221,0,0,1,.224.224v7.448a.221.221,0,0,1-.224.224H6.034a1.093,1.093,0,0,1-.756-.294,1.03,1.03,0,0,1-.35-.714V13.2c0-.028-.014-.042-.014-.07V5.922" transform="translate(-1.092 -1.652)"/><path class="f" d="M4.51,7.3a.155.155,0,0,1-.154-.154V5.23a.154.154,0,1,1,.308,0v1.9A.159.159,0,0,1,4.51,7.3Zm0,0,0,2.31a.155.155,0,0,1-.154-.154V7.988a.154.154,0,1,1,.308,0v1.47A.155.155,0,0,1,4.51,9.612Zm0,0" transform="translate(-0.968 -1.464)"/><path class="f" d="M5.68,8.482a.155.155,0,0,1-.154-.154V7.642a.154.154,0,1,1,.308,0v.686A.14.14,0,0,1,5.68,8.482Zm0,0,0,2.044a.155.155,0,0,1-.154-.154V8.9a.154.154,0,1,1,.308,0v1.47A.14.14,0,0,1,5.68,10.526Zm0,0" transform="translate(-1.228 -2)"/><path class="f" d="M5.63,14.144A1.275,1.275,0,0,1,4.37,13a.308.308,0,0,1-.014-.112V10.9a.154.154,0,0,1,.308,0v2.016l.014.042V13a.9.9,0,0,0,.308.616.934.934,0,0,0,.644.252H11.3a.066.066,0,0,0,.07-.07V12.52a.154.154,0,1,1,.308,0v1.274a.391.391,0,0,1-.392.392H5.644Zm0,0,5.894-2.828a.155.155,0,0,1-.154-.154V6.318a.066.066,0,0,0-.07-.07h-.378a.154.154,0,0,1,0-.308H11.3a.391.391,0,0,1,.392.392v4.844A.18.18,0,0,1,11.524,11.316Zm0,0" transform="translate(-0.968 -1.656)"/><path class="f" d="M11.034,5.872H5.2l-.028-.014H5.154a.8.8,0,0,1,0-1.6h.014l.042-.014h5.838l-.014,1.624Zm-5.8-.322h5.488V4.542H5.238c-.028,0-.056.014-.084.014a.49.49,0,0,0,0,.98c.014.014.042.014.084.014Zm0,0" transform="translate(-0.968 -1.28)"/></g></g></g></svg>